<?xml version="1.0" encoding="iso-8859-1"?>
<!-- Generator: Adobe Illustrator 19.0.0, SVG Export Plug-In . SVG Version: 6.00 Build 0)  -->
<svg version="1.1" id="Layer_1" xmlns="http://www.w3.org/2000/svg" xmlns:xlink="http://www.w3.org/1999/xlink" x="0px" y="0px"
	 viewBox="0 0 512 512" style="enable-background:new 0 0 512 512;" xml:space="preserve">
<g>
	<g>
		<path d="M452.494,102.165c-12.544-12.587-30.869-18.496-49.813-16.427c-17.621,1.963-34.752,10.496-48.235,23.979
			c-13.504,13.461-21.995,30.613-23.957,48.213c-1.237,11.2,0.597,21.888,4.587,31.467l-57.749,57.771V144.747
			c24.789-10.304,42.667-37.675,42.667-70.08c0-41.173-28.715-74.667-64-74.667s-64,33.493-64,74.667
			c0,32.405,17.899,59.776,42.667,70.08v102.421l-57.749-57.771c3.989-9.579,5.824-20.267,4.587-31.467
			c-1.963-17.6-10.453-34.752-23.957-48.213c-13.483-13.483-30.613-22.016-48.235-23.979c-18.944-2.091-37.269,3.84-49.813,16.427
			c-12.565,12.544-18.539,30.699-16.405,49.813c1.941,17.621,10.453,34.752,23.957,48.235
			c13.483,13.504,30.613,21.995,48.213,23.957c2.56,0.256,5.077,0.405,7.552,0.405c8.533,0,16.683-1.707,24.107-4.821l78.912,78.912
			h-97.835c-6.571,0-12.779,3.029-16.811,8.213c-4.032,5.163-5.483,11.904-3.883,18.283l42.667,170.667
			C152.356,505.323,160.868,512,170.66,512h170.667c9.792,0,18.304-6.677,20.693-16.171l42.667-170.667
			c1.6-6.379,0.171-13.12-3.883-18.283c-4.032-5.184-10.24-8.213-16.811-8.213h-97.835l78.912-78.912
			c7.424,3.115,15.595,4.821,24.107,4.821c2.475,0,5.013-0.149,7.552-0.405c17.6-1.963,34.731-10.453,48.213-23.957
			c13.504-13.483,22.016-30.613,23.979-48.235C471.033,132.864,465.06,114.709,452.494,102.165z"/>
	</g>
</g>
</svg>
