<?xml version="1.0" encoding="iso-8859-1"?>
<!-- Generator: Adobe Illustrator 19.0.0, SVG Export Plug-In . SVG Version: 6.00 Build 0)  -->
<svg version="1.1" id="Layer_1" xmlns="http://www.w3.org/2000/svg" xmlns:xlink="http://www.w3.org/1999/xlink" x="0px" y="0px"
	 viewBox="0 0 491.52 491.52" style="enable-background:new 0 0 491.52 491.52;" xml:space="preserve">
<g>
	<g>
		<path d="M471.04,225.28h-204.8v-40.96h102.4c11.325,0,20.48-9.175,20.48-20.48V20.48C389.12,9.175,379.965,0,368.64,0H122.88
			c-11.325,0-20.48,9.175-20.48,20.48v143.36c0,11.305,9.155,20.48,20.48,20.48h102.4v40.96H20.48C9.155,225.28,0,234.455,0,245.76
			v81.92c0,11.305,9.155,20.48,20.48,20.48h20.48v122.88c0,11.305,9.155,20.48,20.48,20.48s20.48-9.175,20.48-20.48V348.16H409.6
			v122.88c0,11.305,9.155,20.48,20.48,20.48s20.48-9.175,20.48-20.48V348.16h20.48c11.325,0,20.48-9.175,20.48-20.48v-81.92
			C491.52,234.455,482.365,225.28,471.04,225.28z"/>
	</g>
</g>
</svg>
