<?xml version="1.0" encoding="iso-8859-1"?>
<!-- Generator: Adobe Illustrator 19.0.0, SVG Export Plug-In . SVG Version: 6.00 Build 0)  -->
<svg version="1.1" id="Layer_1" xmlns="http://www.w3.org/2000/svg" xmlns:xlink="http://www.w3.org/1999/xlink" x="0px" y="0px"
	 viewBox="0 0 512 512" style="enable-background:new 0 0 512 512;" xml:space="preserve">
<g>
	<g>
		<path d="M400.812,306.88c-4.032-5.184-10.24-8.213-16.811-8.213H280.364c9.536-36.693,42.645-64,82.304-64
			c11.797,0,21.333-9.536,21.333-21.333c0-11.776-9.536-21.333-21.333-21.333c-32.811,0-62.656,12.501-85.333,32.875V192
			c0-47.061,38.272-85.333,85.333-85.333c11.797,0,21.333-9.536,21.333-21.333c0-11.797-9.536-21.333-21.333-21.333
			c-32.811,0-62.656,12.501-85.333,32.875V21.333C277.335,9.536,267.799,0,256.002,0c-11.797,0-21.333,9.536-21.333,21.333v75.541
			C211.991,76.501,182.124,64,149.335,64c-11.797,0-21.333,9.536-21.333,21.333c0,11.797,9.536,21.333,21.333,21.333
			c47.061,0,85.333,38.272,85.333,85.333v32.875C211.991,204.501,182.124,192,149.335,192c-11.797,0-21.333,9.557-21.333,21.333
			c0,11.797,9.536,21.333,21.333,21.333c39.659,0,72.768,27.307,82.304,64H128.002c-6.571,0-12.779,3.029-16.811,8.213
			c-4.053,5.163-5.483,11.925-3.883,18.283l42.667,170.667c2.389,9.515,10.901,16.171,20.693,16.171h170.667
			c9.792,0,18.304-6.656,20.693-16.171l42.667-170.667C406.295,318.805,404.844,312.043,400.812,306.88z"/>
	</g>
</g>
</svg>
