{
    "asset" : {
        "generator" : "Khronos glTF Blender I/O v1.1.46",
        "version" : "2.0"
    },
    "extensionsUsed" : [
        "KHR_materials_unlit"
    ],
    "scene" : 0,
    "scenes" : [
        {
            "extras" : {
                "glTF2ExportSettings" : {
                    "export_extras" : 1,
                    "export_format" : "GLTF_EMBEDDED",
                    "export_yup" : 1
                }
            },
            "name" : "Scene",
            "nodes" : [
                0,
                1,
                2,
                6
            ]
        }
    ],
    "nodes" : [
        {
            "mesh" : 0,
            "name" : "Cube.004",
            "scale" : [
                0.5,
                0.5,
                0.5
            ],
            "translation" : [
                -0.75,
                0.25,
                0.75
            ]
        },
        {
            "mesh" : 1,
            "name" : "Cube.005",
            "scale" : [
                0.5,
                0.5,
                0.5
            ],
            "translation" : [
                0.25,
                0.25,
                0.75
            ]
        },
        {
            "mesh" : 2,
            "name" : "Cube.006",
            "scale" : [
                0.5,
                0.5,
                0.5
            ],
            "translation" : [
                1.25,
                0.25,
                0.75
            ]
        },
        {
            "mesh" : 3,
            "name" : "Cube.002",
            "translation" : [
                0,
                2.625,
                -0.75
            ]
        },
        {
            "mesh" : 4,
            "name" : "Cube.003",
            "translation" : [
                -1.9500000476837158,
                2.625,
                1.5499999523162842
            ]
        },
        {
            "extras" : {
                "Wall" : 1
            },
            "mesh" : 5,
            "name" : "Wall.001",
            "translation" : [
                0.9500000476837158,
                2.625,
                1.0499999523162842
            ]
        },
        {
            "children" : [
                3,
                4,
                5
            ],
            "name" : "Walls"
        }
    ],
    "materials" : [
        {
            "doubleSided" : true,
            "name" : "Material.003",
            "pbrMetallicRoughness" : {}
        },
        {
            "doubleSided" : true,
            "extensions" : {
                "KHR_materials_unlit" : {}
            },
            "name" : "Material",
            "pbrMetallicRoughness" : {
                "baseColorFactor" : [
                    1,
                    1,
                    1,
                    1
                ]
            }
        }
    ],
    "meshes" : [
        {
            "name" : "Cube.007",
            "primitives" : [
                {
                    "attributes" : {
                        "POSITION" : 0,
                        "NORMAL" : 1,
                        "TEXCOORD_0" : 2
                    },
                    "indices" : 3,
                    "material" : 0
                }
            ]
        },
        {
            "name" : "Cube.008",
            "primitives" : [
                {
                    "attributes" : {
                        "POSITION" : 4,
                        "NORMAL" : 5,
                        "TEXCOORD_0" : 6
                    },
                    "indices" : 3,
                    "material" : 0
                }
            ]
        },
        {
            "name" : "Cube.009",
            "primitives" : [
                {
                    "attributes" : {
                        "POSITION" : 7,
                        "NORMAL" : 8,
                        "TEXCOORD_0" : 9
                    },
                    "indices" : 3,
                    "material" : 0
                }
            ]
        },
        {
            "name" : "Cube.003",
            "primitives" : [
                {
                    "attributes" : {
                        "POSITION" : 10,
                        "NORMAL" : 11,
                        "TEXCOORD_0" : 12
                    },
                    "indices" : 13,
                    "material" : 1
                }
            ]
        },
        {
            "name" : "Cube.005",
            "primitives" : [
                {
                    "attributes" : {
                        "POSITION" : 14,
                        "NORMAL" : 15,
                        "TEXCOORD_0" : 16
                    },
                    "indices" : 17,
                    "material" : 1
                }
            ]
        },
        {
            "name" : "Cube.004",
            "primitives" : [
                {
                    "attributes" : {
                        "POSITION" : 18,
                        "NORMAL" : 19,
                        "TEXCOORD_0" : 20
                    },
                    "indices" : 21,
                    "material" : 1
                }
            ]
        }
    ],
    "accessors" : [
        {
            "bufferView" : 0,
            "componentType" : 5126,
            "count" : 24,
            "max" : [
                0.5,
                0.5,
                2.5
            ],
            "min" : [
                -0.5,
                -0.5,
                0.5
            ],
            "type" : "VEC3"
        },
        {
            "bufferView" : 1,
            "componentType" : 5126,
            "count" : 24,
            "type" : "VEC3"
        },
        {
            "bufferView" : 2,
            "componentType" : 5126,
            "count" : 24,
            "type" : "VEC2"
        },
        {
            "bufferView" : 3,
            "componentType" : 5123,
            "count" : 36,
            "type" : "SCALAR"
        },
        {
            "bufferView" : 4,
            "componentType" : 5126,
            "count" : 24,
            "max" : [
                0.5,
                0.5,
                2.5
            ],
            "min" : [
                -0.5,
                -0.5,
                0.5
            ],
            "type" : "VEC3"
        },
        {
            "bufferView" : 5,
            "componentType" : 5126,
            "count" : 24,
            "type" : "VEC3"
        },
        {
            "bufferView" : 6,
            "componentType" : 5126,
            "count" : 24,
            "type" : "VEC2"
        },
        {
            "bufferView" : 7,
            "componentType" : 5126,
            "count" : 24,
            "max" : [
                0.5,
                0.5,
                2.5
            ],
            "min" : [
                -0.5,
                -0.5,
                0.5
            ],
            "type" : "VEC3"
        },
        {
            "bufferView" : 8,
            "componentType" : 5126,
            "count" : 24,
            "type" : "VEC3"
        },
        {
            "bufferView" : 9,
            "componentType" : 5126,
            "count" : 24,
            "type" : "VEC2"
        },
        {
            "bufferView" : 10,
            "componentType" : 5126,
            "count" : 102,
            "max" : [
                2,
                2.625,
                0.25
            ],
            "min" : [
                -2,
                -2.625,
                -0.2499999850988388
            ],
            "type" : "VEC3"
        },
        {
            "bufferView" : 11,
            "componentType" : 5126,
            "count" : 102,
            "type" : "VEC3"
        },
        {
            "bufferView" : 12,
            "componentType" : 5126,
            "count" : 102,
            "type" : "VEC2"
        },
        {
            "bufferView" : 13,
            "componentType" : 5123,
            "count" : 192,
            "type" : "SCALAR"
        },
        {
            "bufferView" : 14,
            "componentType" : 5126,
            "count" : 38,
            "max" : [
                0.04999999701976776,
                2.625,
                1.5499999523162842
            ],
            "min" : [
                -0.04999999701976776,
                -2.625,
                -1.5499999523162842
            ],
            "type" : "VEC3"
        },
        {
            "bufferView" : 15,
            "componentType" : 5126,
            "count" : 38,
            "type" : "VEC3"
        },
        {
            "bufferView" : 16,
            "componentType" : 5126,
            "count" : 38,
            "type" : "VEC2"
        },
        {
            "bufferView" : 17,
            "componentType" : 5123,
            "count" : 60,
            "type" : "SCALAR"
        },
        {
            "bufferView" : 18,
            "componentType" : 5126,
            "count" : 54,
            "max" : [
                2.049999952316284,
                2.625,
                2.049999952316284
            ],
            "min" : [
                -2.0500001907348633,
                -2.625,
                -2.049999952316284
            ],
            "type" : "VEC3"
        },
        {
            "bufferView" : 19,
            "componentType" : 5126,
            "count" : 54,
            "type" : "VEC3"
        },
        {
            "bufferView" : 20,
            "componentType" : 5126,
            "count" : 54,
            "type" : "VEC2"
        },
        {
            "bufferView" : 21,
            "componentType" : 5123,
            "count" : 84,
            "type" : "SCALAR"
        }
    ],
    "bufferViews" : [
        {
            "buffer" : 0,
            "byteLength" : 288,
            "byteOffset" : 0
        },
        {
            "buffer" : 0,
            "byteLength" : 288,
            "byteOffset" : 288
        },
        {
            "buffer" : 0,
            "byteLength" : 192,
            "byteOffset" : 576
        },
        {
            "buffer" : 0,
            "byteLength" : 72,
            "byteOffset" : 768
        },
        {
            "buffer" : 0,
            "byteLength" : 288,
            "byteOffset" : 840
        },
        {
            "buffer" : 0,
            "byteLength" : 288,
            "byteOffset" : 1128
        },
        {
            "buffer" : 0,
            "byteLength" : 192,
            "byteOffset" : 1416
        },
        {
            "buffer" : 0,
            "byteLength" : 288,
            "byteOffset" : 1608
        },
        {
            "buffer" : 0,
            "byteLength" : 288,
            "byteOffset" : 1896
        },
        {
            "buffer" : 0,
            "byteLength" : 192,
            "byteOffset" : 2184
        },
        {
            "buffer" : 0,
            "byteLength" : 1224,
            "byteOffset" : 2376
        },
        {
            "buffer" : 0,
            "byteLength" : 1224,
            "byteOffset" : 3600
        },
        {
            "buffer" : 0,
            "byteLength" : 816,
            "byteOffset" : 4824
        },
        {
            "buffer" : 0,
            "byteLength" : 384,
            "byteOffset" : 5640
        },
        {
            "buffer" : 0,
            "byteLength" : 456,
            "byteOffset" : 6024
        },
        {
            "buffer" : 0,
            "byteLength" : 456,
            "byteOffset" : 6480
        },
        {
            "buffer" : 0,
            "byteLength" : 304,
            "byteOffset" : 6936
        },
        {
            "buffer" : 0,
            "byteLength" : 120,
            "byteOffset" : 7240
        },
        {
            "buffer" : 0,
            "byteLength" : 648,
            "byteOffset" : 7360
        },
        {
            "buffer" : 0,
            "byteLength" : 648,
            "byteOffset" : 8008
        },
        {
            "buffer" : 0,
            "byteLength" : 432,
            "byteOffset" : 8656
        },
        {
            "buffer" : 0,
            "byteLength" : 168,
            "byteOffset" : 9088
        }
    ],
    "buffers" : [
        {
            "byteLength" : 9256,
            "uri" : "data:application/octet-stream;base64,"
        }
    ]
}
