{
    "asset" : {
        "generator" : "Khronos glTF Blender I/O v1.1.46",
        "version" : "2.0"
    },
    "extensionsUsed" : [
        "KHR_materials_unlit"
    ],
    "scene" : 0,
    "scenes" : [
        {
            "name" : "Scene",
            "nodes" : [
                0,
                1,
                2,
                3,
                4,
                5
            ]
        }
    ],
    "nodes" : [
        {
            "mesh" : 0,
            "name" : "Cube.002",
            "scale" : [
                2,
                0.5,
                0.5
            ],
            "translation" : [
                0,
                0.25,
                -0.949999988079071
            ]
        },
        {
            "mesh" : 1,
            "name" : "Cube.001",
            "scale" : [
                0.5,
                0.5,
                0.5
            ],
            "translation" : [
                2.950000047683716,
                0.25,
                -0.75
            ]
        },
        {
            "mesh" : 2,
            "name" : "Cube.003",
            "scale" : [
                0.5,
                0.5,
                0.5
            ],
            "translation" : [
                -1.9500000476837158,
                0.25,
                -0.75
            ]
        },
        {
            "mesh" : 3,
            "name" : "Cube.004",
            "scale" : [
                0.5,
                0.5,
                0.5
            ],
            "translation" : [
                -0.75,
                0.25,
                0.75
            ]
        },
        {
            "mesh" : 4,
            "name" : "Cube.005",
            "scale" : [
                0.5,
                0.5,
                0.5
            ],
            "translation" : [
                0.25,
                0.25,
                0.75
            ]
        },
        {
            "mesh" : 5,
            "name" : "Cube.006",
            "scale" : [
                0.5,
                0.5,
                0.5
            ],
            "translation" : [
                1.25,
                0.25,
                0.75
            ]
        }
    ],
    "materials" : [
        {
            "doubleSided" : true,
            "extensions" : {
                "KHR_materials_unlit" : {}
            },
            "name" : "Material",
            "pbrMetallicRoughness" : {
                "baseColorFactor" : [
                    1,
                    1,
                    1,
                    1
                ]
            }
        },
        {
            "doubleSided" : true,
            "name" : "Material.003",
            "pbrMetallicRoughness" : {}
        }
    ],
    "meshes" : [
        {
            "name" : "Cube.003",
            "primitives" : [
                {
                    "attributes" : {
                        "POSITION" : 0,
                        "NORMAL" : 1,
                        "TEXCOORD_0" : 2
                    },
                    "indices" : 3,
                    "material" : 0
                }
            ]
        },
        {
            "name" : "Cube.004",
            "primitives" : [
                {
                    "attributes" : {
                        "POSITION" : 4,
                        "NORMAL" : 5,
                        "TEXCOORD_0" : 6
                    },
                    "indices" : 7,
                    "material" : 0
                }
            ]
        },
        {
            "name" : "Cube.005",
            "primitives" : [
                {
                    "attributes" : {
                        "POSITION" : 8,
                        "NORMAL" : 9,
                        "TEXCOORD_0" : 10
                    },
                    "indices" : 11,
                    "material" : 0
                }
            ]
        },
        {
            "name" : "Cube.007",
            "primitives" : [
                {
                    "attributes" : {
                        "POSITION" : 12,
                        "NORMAL" : 13,
                        "TEXCOORD_0" : 14
                    },
                    "indices" : 15,
                    "material" : 1
                }
            ]
        },
        {
            "name" : "Cube.008",
            "primitives" : [
                {
                    "attributes" : {
                        "POSITION" : 16,
                        "NORMAL" : 17,
                        "TEXCOORD_0" : 18
                    },
                    "indices" : 15,
                    "material" : 1
                }
            ]
        },
        {
            "name" : "Cube.009",
            "primitives" : [
                {
                    "attributes" : {
                        "POSITION" : 19,
                        "NORMAL" : 20,
                        "TEXCOORD_0" : 21
                    },
                    "indices" : 15,
                    "material" : 1
                }
            ]
        }
    ],
    "accessors" : [
        {
            "bufferView" : 0,
            "componentType" : 5126,
            "count" : 96,
            "max" : [
                1,
                10,
                0.8999999761581421
            ],
            "min" : [
                -0.9999999403953552,
                -0.5,
                -0.09999999403953552
            ],
            "type" : "VEC3"
        },
        {
            "bufferView" : 1,
            "componentType" : 5126,
            "count" : 96,
            "type" : "VEC3"
        },
        {
            "bufferView" : 2,
            "componentType" : 5126,
            "count" : 96,
            "type" : "VEC2"
        },
        {
            "bufferView" : 3,
            "componentType" : 5123,
            "count" : 192,
            "type" : "SCALAR"
        },
        {
            "bufferView" : 4,
            "componentType" : 5126,
            "count" : 54,
            "max" : [
                0.09999999403953552,
                10,
                7.699999809265137
            ],
            "min" : [
                -8.100000381469727,
                -0.5,
                -0.5
            ],
            "type" : "VEC3"
        },
        {
            "bufferView" : 5,
            "componentType" : 5126,
            "count" : 54,
            "type" : "VEC3"
        },
        {
            "bufferView" : 6,
            "componentType" : 5126,
            "count" : 54,
            "type" : "VEC2"
        },
        {
            "bufferView" : 7,
            "componentType" : 5123,
            "count" : 84,
            "type" : "SCALAR"
        },
        {
            "bufferView" : 8,
            "componentType" : 5126,
            "count" : 38,
            "max" : [
                0.09999999403953552,
                10,
                7.699999809265137
            ],
            "min" : [
                -0.09999999403953552,
                -0.5,
                1.5
            ],
            "type" : "VEC3"
        },
        {
            "bufferView" : 9,
            "componentType" : 5126,
            "count" : 38,
            "type" : "VEC3"
        },
        {
            "bufferView" : 10,
            "componentType" : 5126,
            "count" : 38,
            "type" : "VEC2"
        },
        {
            "bufferView" : 11,
            "componentType" : 5123,
            "count" : 60,
            "type" : "SCALAR"
        },
        {
            "bufferView" : 12,
            "componentType" : 5126,
            "count" : 24,
            "max" : [
                0.5,
                0.5,
                2.5
            ],
            "min" : [
                -0.5,
                -0.5,
                0.5
            ],
            "type" : "VEC3"
        },
        {
            "bufferView" : 13,
            "componentType" : 5126,
            "count" : 24,
            "type" : "VEC3"
        },
        {
            "bufferView" : 14,
            "componentType" : 5126,
            "count" : 24,
            "type" : "VEC2"
        },
        {
            "bufferView" : 15,
            "componentType" : 5123,
            "count" : 36,
            "type" : "SCALAR"
        },
        {
            "bufferView" : 16,
            "componentType" : 5126,
            "count" : 24,
            "max" : [
                0.5,
                0.5,
                2.5
            ],
            "min" : [
                -0.5,
                -0.5,
                0.5
            ],
            "type" : "VEC3"
        },
        {
            "bufferView" : 17,
            "componentType" : 5126,
            "count" : 24,
            "type" : "VEC3"
        },
        {
            "bufferView" : 18,
            "componentType" : 5126,
            "count" : 24,
            "type" : "VEC2"
        },
        {
            "bufferView" : 19,
            "componentType" : 5126,
            "count" : 24,
            "max" : [
                0.5,
                0.5,
                2.5
            ],
            "min" : [
                -0.5,
                -0.5,
                0.5
            ],
            "type" : "VEC3"
        },
        {
            "bufferView" : 20,
            "componentType" : 5126,
            "count" : 24,
            "type" : "VEC3"
        },
        {
            "bufferView" : 21,
            "componentType" : 5126,
            "count" : 24,
            "type" : "VEC2"
        }
    ],
    "bufferViews" : [
        {
            "buffer" : 0,
            "byteLength" : 1152,
            "byteOffset" : 0
        },
        {
            "buffer" : 0,
            "byteLength" : 1152,
            "byteOffset" : 1152
        },
        {
            "buffer" : 0,
            "byteLength" : 768,
            "byteOffset" : 2304
        },
        {
            "buffer" : 0,
            "byteLength" : 384,
            "byteOffset" : 3072
        },
        {
            "buffer" : 0,
            "byteLength" : 648,
            "byteOffset" : 3456
        },
        {
            "buffer" : 0,
            "byteLength" : 648,
            "byteOffset" : 4104
        },
        {
            "buffer" : 0,
            "byteLength" : 432,
            "byteOffset" : 4752
        },
        {
            "buffer" : 0,
            "byteLength" : 168,
            "byteOffset" : 5184
        },
        {
            "buffer" : 0,
            "byteLength" : 456,
            "byteOffset" : 5352
        },
        {
            "buffer" : 0,
            "byteLength" : 456,
            "byteOffset" : 5808
        },
        {
            "buffer" : 0,
            "byteLength" : 304,
            "byteOffset" : 6264
        },
        {
            "buffer" : 0,
            "byteLength" : 120,
            "byteOffset" : 6568
        },
        {
            "buffer" : 0,
            "byteLength" : 288,
            "byteOffset" : 6688
        },
        {
            "buffer" : 0,
            "byteLength" : 288,
            "byteOffset" : 6976
        },
        {
            "buffer" : 0,
            "byteLength" : 192,
            "byteOffset" : 7264
        },
        {
            "buffer" : 0,
            "byteLength" : 72,
            "byteOffset" : 7456
        },
        {
            "buffer" : 0,
            "byteLength" : 288,
            "byteOffset" : 7528
        },
        {
            "buffer" : 0,
            "byteLength" : 288,
            "byteOffset" : 7816
        },
        {
            "buffer" : 0,
            "byteLength" : 192,
            "byteOffset" : 8104
        },
        {
            "buffer" : 0,
            "byteLength" : 288,
            "byteOffset" : 8296
        },
        {
            "buffer" : 0,
            "byteLength" : 288,
            "byteOffset" : 8584
        },
        {
            "buffer" : 0,
            "byteLength" : 192,
            "byteOffset" : 8872
        }
    ],
    "buffers" : [
        {
            "byteLength" : 9064,
            "uri" : "data:application/octet-stream;base64,"
        }
    ]
}
