{
    "asset" : {
        "generator" : "Khronos glTF Blender I/O v1.1.46",
        "version" : "2.0"
    },
    "extensionsUsed" : [
        "KHR_materials_unlit"
    ],
    "scene" : 0,
    "scenes" : [
        {
            "extras" : {
                "glTF2ExportSettings" : {
                    "export_draco_mesh_compression_enable" : 0,
                    "export_extras" : 1,
                    "export_format" : "GLTF_EMBEDDED",
                    "export_selected" : 0,
                    "export_tangents" : 1
                }
            },
            "name" : "Scene",
            "nodes" : [
                5,
                9,
                11
            ]
        }
    ],
    "nodes" : [
        {
            "mesh" : 0,
            "name" : "closet",
            "translation" : [
                0,
                1,
                0
            ]
        },
        {
            "mesh" : 1,
            "name" : "corner",
            "translation" : [
                16,
                1,
                0
            ]
        },
        {
            "mesh" : 2,
            "name" : "fourway",
            "translation" : [
                12,
                1,
                0
            ]
        },
        {
            "mesh" : 3,
            "name" : "junction",
            "translation" : [
                8,
                1,
                0
            ]
        },
        {
            "mesh" : 4,
            "name" : "straight",
            "translation" : [
                4,
                1,
                0
            ]
        },
        {
            "children" : [
                0,
                1,
                2,
                3,
                4
            ],
            "name" : "rooms"
        },
        {
            "mesh" : 5,
            "name" : "central-table"
        },
        {
            "mesh" : 6,
            "name" : "shelves"
        },
        {
            "mesh" : 7,
            "name" : "sideboard"
        },
        {
            "children" : [
                6,
                7,
                8
            ],
            "name" : "inners"
        },
        {
            "mesh" : 8,
            "name" : "default-bot",
            "translation" : [
                1.2000000476837158,
                0.19999998807907104,
                0
            ]
        },
        {
            "children" : [
                10
            ],
            "name" : "actors"
        }
    ],
    "materials" : [
        {
            "doubleSided" : true,
            "extensions" : {
                "KHR_materials_unlit" : {}
            },
            "name" : "white",
            "pbrMetallicRoughness" : {
                "baseColorFactor" : [
                    1,
                    1,
                    1,
                    1
                ]
            }
        },
        {
            "doubleSided" : true,
            "emissiveFactor" : [
                0,
                0,
                0
            ],
            "name" : "actor",
            "pbrMetallicRoughness" : {
                "baseColorTexture" : {
                    "index" : 0,
                    "texCoord" : 0
                },
                "metallicFactor" : 0,
                "roughnessFactor" : 0.5
            }
        }
    ],
    "meshes" : [
        {
            "name" : "Cube.020",
            "primitives" : [
                {
                    "attributes" : {
                        "POSITION" : 0,
                        "NORMAL" : 1,
                        "TANGENT" : 2,
                        "TEXCOORD_0" : 3
                    },
                    "indices" : 4,
                    "material" : 0
                }
            ]
        },
        {
            "name" : "Cube.027",
            "primitives" : [
                {
                    "attributes" : {
                        "POSITION" : 5,
                        "NORMAL" : 6,
                        "TANGENT" : 7,
                        "TEXCOORD_0" : 8
                    },
                    "indices" : 9,
                    "material" : 0
                }
            ]
        },
        {
            "name" : "Cube.001",
            "primitives" : [
                {
                    "attributes" : {
                        "POSITION" : 10,
                        "NORMAL" : 11,
                        "TANGENT" : 12,
                        "TEXCOORD_0" : 13
                    },
                    "indices" : 14,
                    "material" : 0
                }
            ]
        },
        {
            "name" : "Cube.025",
            "primitives" : [
                {
                    "attributes" : {
                        "POSITION" : 15,
                        "NORMAL" : 16,
                        "TANGENT" : 17,
                        "TEXCOORD_0" : 18
                    },
                    "indices" : 19,
                    "material" : 0
                }
            ]
        },
        {
            "name" : "Cube.023",
            "primitives" : [
                {
                    "attributes" : {
                        "POSITION" : 20,
                        "NORMAL" : 21,
                        "TANGENT" : 22,
                        "TEXCOORD_0" : 23
                    },
                    "indices" : 24,
                    "material" : 0
                }
            ]
        },
        {
            "name" : "Cube.002",
            "primitives" : [
                {
                    "attributes" : {
                        "POSITION" : 25,
                        "NORMAL" : 26,
                        "TANGENT" : 27,
                        "TEXCOORD_0" : 28
                    },
                    "indices" : 29
                }
            ]
        },
        {
            "name" : "Cube.003",
            "primitives" : [
                {
                    "attributes" : {
                        "POSITION" : 30,
                        "NORMAL" : 31,
                        "TANGENT" : 32,
                        "TEXCOORD_0" : 33
                    },
                    "indices" : 29
                }
            ]
        },
        {
            "name" : "Cube.004",
            "primitives" : [
                {
                    "attributes" : {
                        "POSITION" : 34,
                        "NORMAL" : 35,
                        "TANGENT" : 36,
                        "TEXCOORD_0" : 37
                    },
                    "indices" : 29
                }
            ]
        },
        {
            "name" : "Cube.005",
            "primitives" : [
                {
                    "attributes" : {
                        "POSITION" : 38,
                        "NORMAL" : 39,
                        "TANGENT" : 40,
                        "TEXCOORD_0" : 41
                    },
                    "indices" : 29,
                    "material" : 1
                }
            ]
        }
    ],
    "textures" : [
        {
            "source" : 0
        }
    ],
    "images" : [
        {
            "bufferView" : 42,
            "mimeType" : "image/jpeg",
            "name" : "rubik-texture"
        }
    ],
    "accessors" : [
        {
            "bufferView" : 0,
            "componentType" : 5126,
            "count" : 107,
            "max" : [
                2,
                3.000000238418579,
                2
            ],
            "min" : [
                -2,
                -1,
                -2
            ],
            "type" : "VEC3"
        },
        {
            "bufferView" : 1,
            "componentType" : 5126,
            "count" : 107,
            "type" : "VEC3"
        },
        {
            "bufferView" : 2,
            "componentType" : 5126,
            "count" : 107,
            "type" : "VEC4"
        },
        {
            "bufferView" : 3,
            "componentType" : 5126,
            "count" : 107,
            "type" : "VEC2"
        },
        {
            "bufferView" : 4,
            "componentType" : 5123,
            "count" : 132,
            "type" : "SCALAR"
        },
        {
            "bufferView" : 5,
            "componentType" : 5126,
            "count" : 150,
            "max" : [
                2.0000007152557373,
                3.000000238418579,
                2.0000007152557373
            ],
            "min" : [
                -2.0000007152557373,
                -1,
                -2.0000007152557373
            ],
            "type" : "VEC3"
        },
        {
            "bufferView" : 6,
            "componentType" : 5126,
            "count" : 150,
            "type" : "VEC3"
        },
        {
            "bufferView" : 7,
            "componentType" : 5126,
            "count" : 150,
            "type" : "VEC4"
        },
        {
            "bufferView" : 8,
            "componentType" : 5126,
            "count" : 150,
            "type" : "VEC2"
        },
        {
            "bufferView" : 9,
            "componentType" : 5123,
            "count" : 168,
            "type" : "SCALAR"
        },
        {
            "bufferView" : 10,
            "componentType" : 5126,
            "count" : 222,
            "max" : [
                2.0000007152557373,
                3.000000238418579,
                2.0000007152557373
            ],
            "min" : [
                -2.0000007152557373,
                -1,
                -2.0000007152557373
            ],
            "type" : "VEC3"
        },
        {
            "bufferView" : 11,
            "componentType" : 5126,
            "count" : 222,
            "type" : "VEC3"
        },
        {
            "bufferView" : 12,
            "componentType" : 5126,
            "count" : 222,
            "type" : "VEC4"
        },
        {
            "bufferView" : 13,
            "componentType" : 5126,
            "count" : 222,
            "type" : "VEC2"
        },
        {
            "bufferView" : 14,
            "componentType" : 5123,
            "count" : 240,
            "type" : "SCALAR"
        },
        {
            "bufferView" : 15,
            "componentType" : 5126,
            "count" : 188,
            "max" : [
                2.0000007152557373,
                3.000000238418579,
                2.0000007152557373
            ],
            "min" : [
                -2.0000007152557373,
                -1,
                -2.0000007152557373
            ],
            "type" : "VEC3"
        },
        {
            "bufferView" : 16,
            "componentType" : 5126,
            "count" : 188,
            "type" : "VEC3"
        },
        {
            "bufferView" : 17,
            "componentType" : 5126,
            "count" : 188,
            "type" : "VEC4"
        },
        {
            "bufferView" : 18,
            "componentType" : 5126,
            "count" : 188,
            "type" : "VEC2"
        },
        {
            "bufferView" : 19,
            "componentType" : 5123,
            "count" : 204,
            "type" : "SCALAR"
        },
        {
            "bufferView" : 20,
            "componentType" : 5126,
            "count" : 136,
            "max" : [
                2.0000007152557373,
                3.000000238418579,
                2.0000007152557373
            ],
            "min" : [
                -2.0000007152557373,
                -1,
                -2.0000007152557373
            ],
            "type" : "VEC3"
        },
        {
            "bufferView" : 21,
            "componentType" : 5126,
            "count" : 136,
            "type" : "VEC3"
        },
        {
            "bufferView" : 22,
            "componentType" : 5126,
            "count" : 136,
            "type" : "VEC4"
        },
        {
            "bufferView" : 23,
            "componentType" : 5126,
            "count" : 136,
            "type" : "VEC2"
        },
        {
            "bufferView" : 24,
            "componentType" : 5123,
            "count" : 168,
            "type" : "SCALAR"
        },
        {
            "bufferView" : 25,
            "componentType" : 5126,
            "count" : 24,
            "max" : [
                0.5,
                0.5,
                0.5
            ],
            "min" : [
                -0.5,
                0,
                -0.5
            ],
            "type" : "VEC3"
        },
        {
            "bufferView" : 26,
            "componentType" : 5126,
            "count" : 24,
            "type" : "VEC3"
        },
        {
            "bufferView" : 27,
            "componentType" : 5126,
            "count" : 24,
            "type" : "VEC4"
        },
        {
            "bufferView" : 28,
            "componentType" : 5126,
            "count" : 24,
            "type" : "VEC2"
        },
        {
            "bufferView" : 29,
            "componentType" : 5123,
            "count" : 36,
            "type" : "SCALAR"
        },
        {
            "bufferView" : 30,
            "componentType" : 5126,
            "count" : 24,
            "max" : [
                -1.649999976158142,
                1,
                0.5
            ],
            "min" : [
                -1.9499999284744263,
                0,
                -0.5
            ],
            "type" : "VEC3"
        },
        {
            "bufferView" : 31,
            "componentType" : 5126,
            "count" : 24,
            "type" : "VEC3"
        },
        {
            "bufferView" : 32,
            "componentType" : 5126,
            "count" : 24,
            "type" : "VEC4"
        },
        {
            "bufferView" : 33,
            "componentType" : 5126,
            "count" : 24,
            "type" : "VEC2"
        },
        {
            "bufferView" : 34,
            "componentType" : 5126,
            "count" : 24,
            "max" : [
                -1.5499999523162842,
                0.5,
                1.9499999284744263
            ],
            "min" : [
                -1.9499999284744263,
                0,
                -1.9500000476837158
            ],
            "type" : "VEC3"
        },
        {
            "bufferView" : 35,
            "componentType" : 5126,
            "count" : 24,
            "type" : "VEC3"
        },
        {
            "bufferView" : 36,
            "componentType" : 5126,
            "count" : 24,
            "type" : "VEC4"
        },
        {
            "bufferView" : 37,
            "componentType" : 5126,
            "count" : 24,
            "type" : "VEC2"
        },
        {
            "bufferView" : 38,
            "componentType" : 5126,
            "count" : 24,
            "max" : [
                0.125,
                0.25,
                0.125
            ],
            "min" : [
                -0.125,
                0,
                -0.125
            ],
            "type" : "VEC3"
        },
        {
            "bufferView" : 39,
            "componentType" : 5126,
            "count" : 24,
            "type" : "VEC3"
        },
        {
            "bufferView" : 40,
            "componentType" : 5126,
            "count" : 24,
            "type" : "VEC4"
        },
        {
            "bufferView" : 41,
            "componentType" : 5126,
            "count" : 24,
            "type" : "VEC2"
        }
    ],
    "bufferViews" : [
        {
            "buffer" : 0,
            "byteLength" : 1284,
            "byteOffset" : 0
        },
        {
            "buffer" : 0,
            "byteLength" : 1284,
            "byteOffset" : 1284
        },
        {
            "buffer" : 0,
            "byteLength" : 1712,
            "byteOffset" : 2568
        },
        {
            "buffer" : 0,
            "byteLength" : 856,
            "byteOffset" : 4280
        },
        {
            "buffer" : 0,
            "byteLength" : 264,
            "byteOffset" : 5136
        },
        {
            "buffer" : 0,
            "byteLength" : 1800,
            "byteOffset" : 5400
        },
        {
            "buffer" : 0,
            "byteLength" : 1800,
            "byteOffset" : 7200
        },
        {
            "buffer" : 0,
            "byteLength" : 2400,
            "byteOffset" : 9000
        },
        {
            "buffer" : 0,
            "byteLength" : 1200,
            "byteOffset" : 11400
        },
        {
            "buffer" : 0,
            "byteLength" : 336,
            "byteOffset" : 12600
        },
        {
            "buffer" : 0,
            "byteLength" : 2664,
            "byteOffset" : 12936
        },
        {
            "buffer" : 0,
            "byteLength" : 2664,
            "byteOffset" : 15600
        },
        {
            "buffer" : 0,
            "byteLength" : 3552,
            "byteOffset" : 18264
        },
        {
            "buffer" : 0,
            "byteLength" : 1776,
            "byteOffset" : 21816
        },
        {
            "buffer" : 0,
            "byteLength" : 480,
            "byteOffset" : 23592
        },
        {
            "buffer" : 0,
            "byteLength" : 2256,
            "byteOffset" : 24072
        },
        {
            "buffer" : 0,
            "byteLength" : 2256,
            "byteOffset" : 26328
        },
        {
            "buffer" : 0,
            "byteLength" : 3008,
            "byteOffset" : 28584
        },
        {
            "buffer" : 0,
            "byteLength" : 1504,
            "byteOffset" : 31592
        },
        {
            "buffer" : 0,
            "byteLength" : 408,
            "byteOffset" : 33096
        },
        {
            "buffer" : 0,
            "byteLength" : 1632,
            "byteOffset" : 33504
        },
        {
            "buffer" : 0,
            "byteLength" : 1632,
            "byteOffset" : 35136
        },
        {
            "buffer" : 0,
            "byteLength" : 2176,
            "byteOffset" : 36768
        },
        {
            "buffer" : 0,
            "byteLength" : 1088,
            "byteOffset" : 38944
        },
        {
            "buffer" : 0,
            "byteLength" : 336,
            "byteOffset" : 40032
        },
        {
            "buffer" : 0,
            "byteLength" : 288,
            "byteOffset" : 40368
        },
        {
            "buffer" : 0,
            "byteLength" : 288,
            "byteOffset" : 40656
        },
        {
            "buffer" : 0,
            "byteLength" : 384,
            "byteOffset" : 40944
        },
        {
            "buffer" : 0,
            "byteLength" : 192,
            "byteOffset" : 41328
        },
        {
            "buffer" : 0,
            "byteLength" : 72,
            "byteOffset" : 41520
        },
        {
            "buffer" : 0,
            "byteLength" : 288,
            "byteOffset" : 41592
        },
        {
            "buffer" : 0,
            "byteLength" : 288,
            "byteOffset" : 41880
        },
        {
            "buffer" : 0,
            "byteLength" : 384,
            "byteOffset" : 42168
        },
        {
            "buffer" : 0,
            "byteLength" : 192,
            "byteOffset" : 42552
        },
        {
            "buffer" : 0,
            "byteLength" : 288,
            "byteOffset" : 42744
        },
        {
            "buffer" : 0,
            "byteLength" : 288,
            "byteOffset" : 43032
        },
        {
            "buffer" : 0,
            "byteLength" : 384,
            "byteOffset" : 43320
        },
        {
            "buffer" : 0,
            "byteLength" : 192,
            "byteOffset" : 43704
        },
        {
            "buffer" : 0,
            "byteLength" : 288,
            "byteOffset" : 43896
        },
        {
            "buffer" : 0,
            "byteLength" : 288,
            "byteOffset" : 44184
        },
        {
            "buffer" : 0,
            "byteLength" : 384,
            "byteOffset" : 44472
        },
        {
            "buffer" : 0,
            "byteLength" : 192,
            "byteOffset" : 44856
        },
        {
            "buffer" : 0,
            "byteLength" : 12792,
            "byteOffset" : 45048
        }
    ],
    "buffers" : [
        {
            "byteLength" : 57840,
            "uri" : "data:application/octet-stream;base64,"
        }
    ]
}
