{
    "asset" : {
        "generator" : "Khronos glTF Blender I/O v1.1.46",
        "version" : "2.0"
    },
    "extensionsUsed" : [
        "KHR_materials_unlit"
    ],
    "scene" : 0,
    "scenes" : [
        {
            "extras" : {
                "glTF2ExportSettings" : {
                    "export_draco_mesh_compression_enable" : 0,
                    "export_extras" : 1,
                    "export_format" : "GLTF_EMBEDDED",
                    "export_selected" : 0,
                    "export_tangents" : 1
                }
            },
            "name" : "Scene",
            "nodes" : [
                5
            ]
        }
    ],
    "nodes" : [
        {
            "mesh" : 0,
            "name" : "closet",
            "translation" : [
                0,
                1,
                0
            ]
        },
        {
            "mesh" : 1,
            "name" : "corner",
            "translation" : [
                16,
                1,
                0
            ]
        },
        {
            "mesh" : 2,
            "name" : "fourway",
            "translation" : [
                12,
                1,
                0
            ]
        },
        {
            "mesh" : 3,
            "name" : "junction",
            "translation" : [
                8,
                1,
                0
            ]
        },
        {
            "mesh" : 4,
            "name" : "straight",
            "translation" : [
                4,
                1,
                0
            ]
        },
        {
            "children" : [
                0,
                1,
                2,
                3,
                4
            ],
            "name" : "rooms"
        }
    ],
    "materials" : [
        {
            "doubleSided" : true,
            "extensions" : {
                "KHR_materials_unlit" : {}
            },
            "name" : "white",
            "pbrMetallicRoughness" : {
                "baseColorFactor" : [
                    1,
                    1,
                    1,
                    1
                ]
            }
        }
    ],
    "meshes" : [
        {
            "name" : "Cube.020",
            "primitives" : [
                {
                    "attributes" : {
                        "POSITION" : 0,
                        "NORMAL" : 1,
                        "TANGENT" : 2,
                        "TEXCOORD_0" : 3
                    },
                    "indices" : 4,
                    "material" : 0
                }
            ]
        },
        {
            "name" : "Cube.027",
            "primitives" : [
                {
                    "attributes" : {
                        "POSITION" : 5,
                        "NORMAL" : 6,
                        "TANGENT" : 7,
                        "TEXCOORD_0" : 8
                    },
                    "indices" : 9,
                    "material" : 0
                }
            ]
        },
        {
            "name" : "Cube.001",
            "primitives" : [
                {
                    "attributes" : {
                        "POSITION" : 10,
                        "NORMAL" : 11,
                        "TANGENT" : 12,
                        "TEXCOORD_0" : 13
                    },
                    "indices" : 14,
                    "material" : 0
                }
            ]
        },
        {
            "name" : "Cube.025",
            "primitives" : [
                {
                    "attributes" : {
                        "POSITION" : 15,
                        "NORMAL" : 16,
                        "TANGENT" : 17,
                        "TEXCOORD_0" : 18
                    },
                    "indices" : 19,
                    "material" : 0
                }
            ]
        },
        {
            "name" : "Cube.023",
            "primitives" : [
                {
                    "attributes" : {
                        "POSITION" : 20,
                        "NORMAL" : 21,
                        "TANGENT" : 22,
                        "TEXCOORD_0" : 23
                    },
                    "indices" : 24,
                    "material" : 0
                }
            ]
        }
    ],
    "accessors" : [
        {
            "bufferView" : 0,
            "componentType" : 5126,
            "count" : 108,
            "max" : [
                2,
                11,
                2
            ],
            "min" : [
                -2,
                -1,
                -2
            ],
            "type" : "VEC3"
        },
        {
            "bufferView" : 1,
            "componentType" : 5126,
            "count" : 108,
            "type" : "VEC3"
        },
        {
            "bufferView" : 2,
            "componentType" : 5126,
            "count" : 108,
            "type" : "VEC4"
        },
        {
            "bufferView" : 3,
            "componentType" : 5126,
            "count" : 108,
            "type" : "VEC2"
        },
        {
            "bufferView" : 4,
            "componentType" : 5123,
            "count" : 132,
            "type" : "SCALAR"
        },
        {
            "bufferView" : 5,
            "componentType" : 5126,
            "count" : 156,
            "max" : [
                2.0000007152557373,
                11,
                2.0000007152557373
            ],
            "min" : [
                -2.0000007152557373,
                -1,
                -2.0000007152557373
            ],
            "type" : "VEC3"
        },
        {
            "bufferView" : 6,
            "componentType" : 5126,
            "count" : 156,
            "type" : "VEC3"
        },
        {
            "bufferView" : 7,
            "componentType" : 5126,
            "count" : 156,
            "type" : "VEC4"
        },
        {
            "bufferView" : 8,
            "componentType" : 5126,
            "count" : 156,
            "type" : "VEC2"
        },
        {
            "bufferView" : 9,
            "componentType" : 5123,
            "count" : 174,
            "type" : "SCALAR"
        },
        {
            "bufferView" : 10,
            "componentType" : 5126,
            "count" : 234,
            "max" : [
                2.0000007152557373,
                11,
                2.0000007152557373
            ],
            "min" : [
                -2.0000007152557373,
                -1,
                -2.0000007152557373
            ],
            "type" : "VEC3"
        },
        {
            "bufferView" : 11,
            "componentType" : 5126,
            "count" : 234,
            "type" : "VEC3"
        },
        {
            "bufferView" : 12,
            "componentType" : 5126,
            "count" : 234,
            "type" : "VEC4"
        },
        {
            "bufferView" : 13,
            "componentType" : 5126,
            "count" : 234,
            "type" : "VEC2"
        },
        {
            "bufferView" : 14,
            "componentType" : 5123,
            "count" : 252,
            "type" : "SCALAR"
        },
        {
            "bufferView" : 15,
            "componentType" : 5126,
            "count" : 194,
            "max" : [
                2.0000007152557373,
                11,
                2.0000007152557373
            ],
            "min" : [
                -2.0000007152557373,
                -1,
                -2.0000007152557373
            ],
            "type" : "VEC3"
        },
        {
            "bufferView" : 16,
            "componentType" : 5126,
            "count" : 194,
            "type" : "VEC3"
        },
        {
            "bufferView" : 17,
            "componentType" : 5126,
            "count" : 194,
            "type" : "VEC4"
        },
        {
            "bufferView" : 18,
            "componentType" : 5126,
            "count" : 194,
            "type" : "VEC2"
        },
        {
            "bufferView" : 19,
            "componentType" : 5123,
            "count" : 210,
            "type" : "SCALAR"
        },
        {
            "bufferView" : 20,
            "componentType" : 5126,
            "count" : 136,
            "max" : [
                2.0000007152557373,
                11,
                2.0000007152557373
            ],
            "min" : [
                -2.0000007152557373,
                -1,
                -2.0000007152557373
            ],
            "type" : "VEC3"
        },
        {
            "bufferView" : 21,
            "componentType" : 5126,
            "count" : 136,
            "type" : "VEC3"
        },
        {
            "bufferView" : 22,
            "componentType" : 5126,
            "count" : 136,
            "type" : "VEC4"
        },
        {
            "bufferView" : 23,
            "componentType" : 5126,
            "count" : 136,
            "type" : "VEC2"
        },
        {
            "bufferView" : 24,
            "componentType" : 5123,
            "count" : 168,
            "type" : "SCALAR"
        }
    ],
    "bufferViews" : [
        {
            "buffer" : 0,
            "byteLength" : 1296,
            "byteOffset" : 0
        },
        {
            "buffer" : 0,
            "byteLength" : 1296,
            "byteOffset" : 1296
        },
        {
            "buffer" : 0,
            "byteLength" : 1728,
            "byteOffset" : 2592
        },
        {
            "buffer" : 0,
            "byteLength" : 864,
            "byteOffset" : 4320
        },
        {
            "buffer" : 0,
            "byteLength" : 264,
            "byteOffset" : 5184
        },
        {
            "buffer" : 0,
            "byteLength" : 1872,
            "byteOffset" : 5448
        },
        {
            "buffer" : 0,
            "byteLength" : 1872,
            "byteOffset" : 7320
        },
        {
            "buffer" : 0,
            "byteLength" : 2496,
            "byteOffset" : 9192
        },
        {
            "buffer" : 0,
            "byteLength" : 1248,
            "byteOffset" : 11688
        },
        {
            "buffer" : 0,
            "byteLength" : 348,
            "byteOffset" : 12936
        },
        {
            "buffer" : 0,
            "byteLength" : 2808,
            "byteOffset" : 13284
        },
        {
            "buffer" : 0,
            "byteLength" : 2808,
            "byteOffset" : 16092
        },
        {
            "buffer" : 0,
            "byteLength" : 3744,
            "byteOffset" : 18900
        },
        {
            "buffer" : 0,
            "byteLength" : 1872,
            "byteOffset" : 22644
        },
        {
            "buffer" : 0,
            "byteLength" : 504,
            "byteOffset" : 24516
        },
        {
            "buffer" : 0,
            "byteLength" : 2328,
            "byteOffset" : 25020
        },
        {
            "buffer" : 0,
            "byteLength" : 2328,
            "byteOffset" : 27348
        },
        {
            "buffer" : 0,
            "byteLength" : 3104,
            "byteOffset" : 29676
        },
        {
            "buffer" : 0,
            "byteLength" : 1552,
            "byteOffset" : 32780
        },
        {
            "buffer" : 0,
            "byteLength" : 420,
            "byteOffset" : 34332
        },
        {
            "buffer" : 0,
            "byteLength" : 1632,
            "byteOffset" : 34752
        },
        {
            "buffer" : 0,
            "byteLength" : 1632,
            "byteOffset" : 36384
        },
        {
            "buffer" : 0,
            "byteLength" : 2176,
            "byteOffset" : 38016
        },
        {
            "buffer" : 0,
            "byteLength" : 1088,
            "byteOffset" : 40192
        },
        {
            "buffer" : 0,
            "byteLength" : 336,
            "byteOffset" : 41280
        }
    ],
    "buffers" : [
        {
            "byteLength" : 41616,
            "uri" : "data:application/octet-stream;base64,"
        }
    ]
}
